<svg id="eWyIoSt54cG1" xmlns="http://www.w3.org/2000/svg" xmlns:xlink="http://www.w3.org/1999/xlink" viewBox="0 0 300 300" shape-rendering="geometricPrecision" text-rendering="geometricPrecision" project-id="0032c74954e64e9f83a07156da8c3acc" export-id="1fe81b2cc99c441abd254f9f76f560a2" cached="false"><path d="M156.968454,112.231811v-54.215003L97.463715,34.265475L57.190328,44.592141l8.777534,44.404667l20.136692,3.614333-5.67958,50.600668l13.424463,29.431l15.489763,2.581665l9.293858,36.143334l14.973438,24.267667l18.071392,3.098001l18.587717,32.529001l33.044828,19.620667l8.261207-9.810335l23.750972,16.522666l18.587716-7.228668-4.130604-36.143336-25.816273-25.30034L211.57164,197.94313v-30.463668l-15.489764-30.980001-39.113422-24.26765Z" transform="translate(-5.550328-15.930475)" fill="#3f5787" stroke="#a27e4e" stroke-width="32" stroke-linejoin="round"/><path d="M156.968454,112.231811v-54.215002L97.463715,34.265475L57.190328,44.592141l8.777534,44.404667l20.136692,3.614333-5.67958,50.600668l13.424463,29.431l15.489763,2.581665l9.293858,36.143333l14.973439,24.267668l18.071392,3.098001l18.587717,32.529001l33.044828,19.620667l8.261206-9.810335l23.750972,16.522666l18.587716-7.228668-4.130604-36.143336-25.816273-25.30034L211.57164,197.94313v-30.463668l-15.489764-30.980001-39.113422-24.26765Z" transform="translate(-5.550328-15.930475)" fill="#331710" stroke-width="32" stroke-linejoin="round"/></svg>
