<svg id="e86aq9J42cS1" xmlns="http://www.w3.org/2000/svg" xmlns:xlink="http://www.w3.org/1999/xlink" viewBox="0 0 300 300" shape-rendering="geometricPrecision" text-rendering="geometricPrecision" project-id="cf2dc98e7a394f57b8889c21cbc99508" export-id="0011667584144b9b9ff5cb59468b69f2" cached="false"><path d="M244.49397,150L150,275.99196L55.50603,150L150,24.00804L244.49397,150ZM150,106.42132L117.31599,150L150,193.57868L182.68401,150L150,106.42132Z" transform="matrix(1.045034 0 0 1.045034-6.7551-6.7551)" fill="#331710" stroke="#a27e4e" stroke-width="32" stroke-linecap="round" stroke-linejoin="round"/><path d="M244.49397,150L150,275.99196L55.50603,150L150,24.00804L244.49397,150ZM150,106.42132L117.31599,150L150,193.57868L182.68401,150L150,106.42132Z" transform="matrix(1.045034 0 0 1.045034-6.7551-6.7551)" fill="#331710" stroke-width="32" stroke-linecap="round" stroke-linejoin="round"/><polygon points="-15,-30 0,-10 -15,10 -30,-10 -15,-30" transform="matrix(2.288605 0 0 2.288605 184.329075 172.88605)" fill="#a27e4e" stroke-width="0"/></svg>
