<svg id="ejBO0wFx2EK1" xmlns="http://www.w3.org/2000/svg" xmlns:xlink="http://www.w3.org/1999/xlink" viewBox="0 0 300 300" shape-rendering="geometricPrecision" text-rendering="geometricPrecision" project-id="f3338a0bd0614398beb531f3f8280cd6" export-id="f054df81767140d2ad868820dc576af8" cached="false"><path d="M0,32.91625C0,14.737103,14.73729,0,32.916667,0s32.916667,14.737103,32.916667,32.91625h65.833333C131.666667,14.737103,146.403957,0,164.583333,0s32.916667,14.737103,32.916667,32.91625-14.73729,32.91625-32.916667,32.91625v131.665c18.179377,0,32.916667,14.737103,32.916667,32.91625s-14.73729,32.91625-32.916667,32.91625-32.916667-14.737103-32.916667-32.91625h-65.833333c0,18.179147-14.73729,32.91625-32.916667,32.91625s-32.916667-14.737103-32.916667-32.91625s14.73729-32.91625,32.916667-32.91625v-131.665C14.73729,65.8325,0,51.095397,0,32.91625Z" transform="translate(51.25 18.335)" fill="#a27e4e" stroke="#a27e4e" stroke-width="32"/><path d="M0,32.91625C0,14.737103,14.73729,0,32.916667,0s32.916666,14.737103,32.916666,32.91625h65.833334C131.666667,14.737103,146.403957,0,164.583333,0s32.916667,14.737103,32.916667,32.91625-14.73729,32.91625-32.916667,32.91625v131.665c18.179377,0,32.916667,14.737103,32.916667,32.91625s-14.73729,32.91625-32.916667,32.91625-32.916666-14.737103-32.916666-32.91625h-65.833334c0,18.179147-14.73729,32.91625-32.916666,32.91625s-32.916667-14.737103-32.916667-32.91625s14.73729-32.91625,32.916667-32.91625v-131.665C14.73729,65.8325,0,51.095397,0,32.91625Z" transform="translate(51.25 18.335)" fill="#331710" stroke-width="32"/></svg>
